<svg height="512pt" viewBox="0 -11 512 512" width="512pt" xmlns="http://www.w3.org/2000/svg"><path d="m501 245c0 135.308594-109.691406 245-245 245s-245-109.691406-245-245 109.691406-245 245-245 245 109.691406 245 245zm0 0" fill="#69cdff"/><path d="m376 314v-92c0-27.597656-10.261719-52.796875-27.171875-72h-185.65625c-16.910156 19.203125-27.171875 44.402344-27.171875 72v92zm0 0" fill="#231f20"/><path d="m310.234375 370h-180.234375c-1.046875 0-1.992188-.40625-2.667969-1.140625-.671875-.734375-.996093-1.710937-.90625-2.753906l2.125-24.636719-113.910156-73.964844c-1.230469-.804687-2.855469-.632812-3.894531.40625-14.328125 14.328125-14.328125 37.636719 0 51.964844l88.070312 88.070312c.824219.824219 1.683594 1.597657 2.566406 2.328126-2.585937 6.339843-4.554687 12.996093-5.800781 19.910156 24.523438 21.261718 53.320313 37.722656 84.917969 47.949218v-17.632812c0-41.632812 33.867188-75.5 75.5-75.5 21.269531 0 40.496094 8.855469 54.230469 23.050781v-38.050781zm0 0" fill="#231f20"/><path d="m501.253906 319.875c14.328125-14.328125 14.328125-37.636719 0-51.964844-1.039062-1.039062-2.664062-1.210937-3.894531-.40625l-113.90625 73.964844 2.121094 24.636719c.089843 1.042969-.230469 2.019531-.90625 2.753906-.671875.734375-1.621094 1.140625-2.667969 1.140625h-15.765625v85c0 2.207031-1.796875 4-4 4h-30.773437c.011718.5.039062.996094.039062 1.5v17.632812c31.597656-10.226562 60.390625-26.6875 84.914062-47.949218-1.242187-6.914063-3.210937-13.570313-5.796874-19.910156.882812-.730469 1.742187-1.5 2.566406-2.328126zm0 0" fill="#231f20"/><path d="m314.234375 459c-2.207031 0-4-1.792969-4-4v-84h56v84c0 2.207031-1.796875 4-4 4zm0 0" fill="#37c47a"/><path d="m114.125 444.75c3.304688-11.484375 9.292969-29.65625 11.257812-34.476562-.882812-.730469-1.742187-1.5-2.566406-2.328126l-88.070312-88.070312c-11.742188-11.742188-13.855469-29.519531-6.34375-43.441406l-13.757813-8.933594c-1.234375-.800781-2.859375-.628906-3.898437.410156-14.328125 14.328125-14.328125 37.636719 0 51.960938l88.070312 88.074218c.824219.824219 1.683594 1.597657 2.566406 2.328126-2.585937 6.339843-4.554687 12.996093-5.796874 19.910156 5.933593 5.144531 12.125 10.003906 18.539062 14.566406zm0 0"/><path d="m314.234375 459c-2.207031 0-4-1.792969-4-4v-48.449219c-13.855469-13.925781-33.035156-22.550781-54.234375-22.550781-42.25 0-76.5 34.25-76.5 76.5v17.300781c24.074219 7.90625 49.785156 12.199219 76.5 12.199219 26.71875 0 52.429688-4.292969 76.5-12.199219v-17.300781c0-.503906-.027344-1-.039062-1.5zm0 0" fill="#eef6ff"/><path d="m204 460.5c0-38.078125 27.824219-69.648438 64.25-75.511719-3.988281-.640625-8.078125-.988281-12.25-.988281-42.25 0-76.5 34.25-76.5 76.5v17.300781c7.992188 2.625 16.167969 4.84375 24.5 6.644531zm0 0" fill="#d9eafc"/><path d="m309.234375 370v85c0 2.75 2.25 5 5 5h48c2.75 0 5-2.25 5-5v-85zm0 0" fill="#37c47a"/><path d="m322 455v-85h-12.765625v85c0 2.75 2.25 5 5 5h12.765625c-2.75 0-5-2.25-5-5zm0 0" fill="#2bb381"/><path d="m369 78c0 7.179688-5.820312 13-13 13s-13-5.820312-13-13 5.820312-13 13-13 13 5.820312 13 13zm0 0" fill="#fff"/><path d="m444 167c0 7.179688-5.820312 13-13 13s-13-5.820312-13-13 5.820312-13 13-13 13 5.820312 13 13zm0 0" fill="#d9eafc"/><path d="m106 122c0 7.179688-5.820312 13-13 13s-13-5.820312-13-13 5.820312-13 13-13 13 5.820312 13 13zm0 0" fill="#d9eafc"/><path d="m106 241c0 7.179688-5.820312 13-13 13s-13-5.820312-13-13 5.820312-13 13-13 13 5.820312 13 13zm0 0" fill="#fff"/><path d="m428 277c0 7.179688-5.820312 13-13 13s-13-5.820312-13-13 5.820312-13 13-13 13 5.820312 13 13zm0 0" fill="#fff"/><path d="m301.542969 174.476562c-16.535157 0-32.003907 8.886719-40.371094 23.195313-1.074219 1.835937-3.042969 2.96875-5.171875 2.96875s-4.097656-1.132813-5.171875-2.96875c-8.367187-14.308594-23.835937-23.195313-40.371094-23.195313-25.773437 0-46.742187 20.96875-46.742187 46.742188v33.558594c0 25.777344 20.96875 46.742187 46.742187 46.742187h91.089844c25.773437 0 46.742187-20.964843 46.742187-46.742187v-33.558594c0-25.773438-20.96875-46.742188-46.746093-46.742188zm0 0" fill="#fff"/><path d="m193.515625 275.949219c-1.710937.667969-3.566406 1.050781-5.515625 1.050781-8.375 0-15.167969-6.789062-15.167969-15.167969 0-8.375 6.792969-15.167969 15.167969-15.167969.144531 0 .285156.019532.425781.023438v-25.464844c0-21.488281 14.578125-39.621094 34.355469-45.066406-3.972656-1.09375-8.113281-1.679688-12.324219-1.679688-25.777343 0-46.742187 20.96875-46.742187 46.742188v33.558594c0 25.777344 20.96875 46.742187 46.742187 46.742187h24.710938c-18.15625 0-33.914063-10.410156-41.652344-25.570312zm0 0" fill="#eef6ff"/><path d="m228 238c0 6.628906-5.371094 12-12 12-6.625 0-12-5.371094-12-12v-14c0-6.628906 5.375-12 12-12 6.628906 0 12 5.371094 12 12zm0 0" fill="#1a2b63"/><path d="m308 238c0 6.628906-5.371094 12-12 12-6.625 0-12-5.371094-12-12v-14c0-6.628906 5.375-12 12-12 6.628906 0 12 5.371094 12 12zm0 0" fill="#1a2b63"/><path d="m281.949219 257.078125c0 6.671875-16.949219 21.921875-25.949219 21.921875-10 0-25.945312-15.25-25.945312-21.921875s11.617187-12.078125 25.945312-12.078125c14.332031 0 25.949219 5.40625 25.949219 12.078125zm0 0" fill="#ff9518"/><path d="m242.105469 257.078125c0-5.703125 8.496093-10.480469 19.921875-11.746094-1.933594-.214843-3.949219-.332031-6.027344-.332031-14.328125 0-25.945312 5.40625-25.945312 12.078125s15.945312 21.921875 25.945312 21.921875c1.714844 0 3.71875-.558594 5.839844-1.5-9.285156-4.003906-19.734375-15.023438-19.734375-20.421875zm0 0" fill="#ef8318"/><path d="m377 313c2.75 0 5.195312 2.242188 5.429688 4.980469l4.140624 48.039062c.238282 2.738281-1.820312 4.980469-4.570312 4.980469h-252c-2.75 0-4.804688-2.242188-4.570312-4.980469l4.140624-48.039062c.238282-2.738281 2.679688-4.980469 5.429688-4.980469zm0 0" fill="#02af8e"/><path d="m150.019531 366.019531 4.140625-48.039062c.238282-2.738281 2.679688-4.980469 5.429688-4.980469h-24.589844c-2.75 0-5.191406 2.242188-5.429688 4.980469l-4.140624 48.039062c-.234376 2.738281 1.820312 4.980469 4.570312 4.980469h24.589844c-2.75 0-4.808594-2.242188-4.570313-4.980469zm0 0" fill="#159e97"/><path d="m203.167969 261.832031c0 8.378907-6.789063 15.167969-15.167969 15.167969-8.375 0-15.167969-6.789062-15.167969-15.167969 0-8.375 6.792969-15.167969 15.167969-15.167969 8.378906 0 15.167969 6.792969 15.167969 15.167969zm0 0" fill="#ff9f60"/><path d="m339.167969 261.832031c0 8.378907-6.789063 15.167969-15.167969 15.167969-8.375 0-15.167969-6.789062-15.167969-15.167969 0-8.375 6.792969-15.167969 15.167969-15.167969 8.378906 0 15.167969 6.792969 15.167969 15.167969zm0 0" fill="#ff9f60"/><path d="m182.6875 371c-.074219-.136719-.132812-.285156-.210938-.414062l-18.757812-30.101563c-2.105469-3.378906-5.554688-3.378906-7.660156 0l-18.757813 30.101563c-.082031.128906-.136719.277343-.210937.414062zm0 0" fill="#fff"/><path d="m246.761719 371c-.074219-.136719-.128907-.285156-.210938-.414062l-18.757812-30.101563c-2.105469-3.378906-5.550781-3.378906-7.660157 0l-18.757812 30.101563c-.078125.128906-.136719.277343-.210938.414062zm0 0" fill="#fff"/><path d="m310.835938 371c-.074219-.136719-.128907-.285156-.210938-.414062l-18.757812-30.101563c-2.105469-3.378906-5.550782-3.378906-7.65625 0l-18.757813 30.101563c-.082031.128906-.136719.277343-.210937.414062zm0 0" fill="#fff"/><path d="m374.914062 371c-.074218-.136719-.132812-.285156-.210937-.414062l-18.757813-30.101563c-2.109374-3.378906-5.554687-3.378906-7.660156 0l-18.757812 30.101563c-.082032.128906-.136719.277343-.210938.414062zm0 0" fill="#fff"/><g fill="#60d882"><path d="m181.363281 335.070312c-.941406 1.355469-.941406 3.574219 0 4.929688l8.75 12.605469c.941407 1.355469 2.480469 1.355469 3.421875 0l8.753906-12.605469c.941407-1.355469.941407-3.574219 0-4.929688l-8.753906-12.605468c-.941406-1.355469-2.480468-1.355469-3.421875 0zm0 0"/><path d="m245.710938 335.070312c-.941407 1.355469-.941407 3.574219 0 4.929688l8.753906 12.605469c.941406 1.355469 2.480468 1.355469 3.421875 0l8.753906-12.605469c.941406-1.355469.941406-3.574219 0-4.929688l-8.753906-12.605468c-.941407-1.355469-2.480469-1.355469-3.421875 0zm0 0"/><path d="m310.0625 335.070312c-.941406 1.355469-.941406 3.574219 0 4.929688l8.753906 12.605469c.9375 1.355469 2.480469 1.355469 3.421875 0l8.753907-12.605469c.9375-1.355469.9375-3.574219 0-4.929688l-8.753907-12.605468c-.941406-1.355469-2.484375-1.355469-3.421875 0zm0 0"/><path d="m335.769531 405.289062c1.355469.941407 3.570313.941407 4.929688 0l12.605469-8.753906c1.355468-.9375 1.355468-2.480468 0-3.421875l-12.605469-8.753906c-1.355469-.9375-3.574219-.9375-4.929688 0l-12.609375 8.753906c-1.355468.941407-1.355468 2.484375 0 3.421875zm0 0"/><path d="m335.769531 444.289062c1.355469.941407 3.570313.941407 4.929688 0l12.605469-8.753906c1.355468-.9375 1.355468-2.480468 0-3.421875l-12.605469-8.753906c-1.355469-.9375-3.574219-.9375-4.929688 0l-12.609375 8.753906c-1.355468.941407-1.355468 2.484375 0 3.421875zm0 0"/></g><path d="m256 47.972656c-4.496094 0-8.632812-1.507812-11.976562-4.019531l-59.34375 79.046875h142.640624l-59.34375-79.050781c-3.34375 2.515625-7.480468 4.023437-11.976562 4.023437zm0 0" fill="#ea2a3d"/><path d="m267.976562 43.949219c-3.34375 2.515625-7.480468 4.023437-11.976562 4.023437s-8.632812-1.507812-11.976562-4.023437l-59.34375 79.050781h24.695312l58.972656-78.554688zm0 0" fill="#b7092b"/><path d="m363.5 136.5c0 8.007812-6.492188 14.5-14.5 14.5h-186c-8.007812 0-14.5-6.492188-14.5-14.5s6.492188-14.5 14.5-14.5h186c8.007812 0 14.5 6.492188 14.5 14.5zm0 0" fill="#fff"/><path d="m173 136.5c0-8.007812 6.492188-14.5 14.5-14.5h-24.5c-8.007812 0-14.5 6.492188-14.5 14.5s6.492188 14.5 14.5 14.5h24.5c-8.007812 0-14.5-6.492188-14.5-14.5zm0 0" fill="#eef6ff"/><path d="m276.988281 27.988281c0 11.589844-9.398437 20.984375-20.988281 20.984375s-20.988281-9.394531-20.988281-20.984375c0-11.59375 9.398437-20.988281 20.988281-20.988281s20.988281 9.394531 20.988281 20.988281zm0 0" fill="#fff"/><path d="m249.027344 27.988281c0-9.132812 5.839844-16.878906 13.980468-19.765625-2.195312-.777344-4.546874-1.222656-7.007812-1.222656-11.59375 0-20.988281 9.394531-20.988281 20.988281 0 11.589844 9.398437 20.984375 20.988281 20.984375 2.460938 0 4.8125-.445312 7.003906-1.222656-8.136718-2.886719-13.976562-10.632812-13.976562-19.761719zm0 0" fill="#eef6ff"/><path d="m273.292969 93.550781-8.746094-5.050781 8.746094-5.050781c2.378906-1.375 3.367187-4.164063 2.191406-6.199219s-4.082031-2.574219-6.464844-1.199219l-8.746093 5.050781v-10.101562c0-2.75-1.921876-5-4.273438-5-2.347656 0-4.273438 2.25-4.273438 5v10.101562l-8.746093-5.050781c-2.378907-1.375-5.289063-.835937-6.464844 1.199219s-.1875 4.824219 2.195313 6.199219l8.746093 5.050781-8.746093 5.050781c-2.382813 1.375-3.371094 4.164063-2.195313 6.199219s4.085937 2.574219 6.464844 1.199219l8.746093-5.050781v10.101562c0 2.75 1.925782 5 4.273438 5 2.351562 0 4.273438-2.25 4.273438-5v-10.101562l8.746093 5.050781c2.382813 1.375 5.289063.835937 6.464844-1.199219s.1875-4.824219-2.191406-6.199219zm0 0" fill="#fff"/></svg>